<?xml version="1.0" encoding="utf-8"?>
<!-- Generator: Adobe Illustrator 16.0.0, SVG Export Plug-In . SVG Version: 6.00 Build 0)  -->
<!DOCTYPE svg PUBLIC "-//W3C//DTD SVG 1.1//EN" "http://www.w3.org/Graphics/SVG/1.1/DTD/svg11.dtd">
<svg version="1.1" id="layer" xmlns="http://www.w3.org/2000/svg" xmlns:xlink="http://www.w3.org/1999/xlink" x="0px" y="0px"
	 width="640px" height="358px" viewBox="0 0 640 358" enable-background="new 0 0 640 358" xml:space="preserve">
<g>
	<path fill="#FFFFFF" stroke="#FFFFFF" stroke-miterlimit="10" d="M155.825,152.974h19.767c17.9,0,31.518,7.797,31.518,27.399
		c0,15.813-11.146,25.916-26.686,25.916h-24.599V152.974z M175.208,190.256h1.153c6.479,0,11.366-3.02,11.366-9.993
		c0-7.413-4.283-10.707-11.366-10.707h-1.153V190.256z"/>
	<rect x="210.514" y="152.974" fill="#FFFFFF" stroke="#FFFFFF" stroke-miterlimit="10" width="19.382" height="53.261"/>
	<path fill="#FFFFFF" stroke="#FFFFFF" stroke-miterlimit="10" d="M434.044,152.974h19.712c17.9,0,31.518,7.797,31.518,27.399
		c0,15.813-11.146,25.916-26.74,25.916h-24.489V152.974L434.044,152.974z M453.371,190.256h1.208c6.425,0,11.366-3.02,11.366-9.993
		c0-7.413-4.338-10.707-11.366-10.707h-1.208V190.256z"/>
	<polygon fill="#EC1C24" stroke="#FFFFFF" stroke-miterlimit="10" points="391.6,179.33 368.154,209.09 344.709,179.33 
		368.154,149.459 	"/>
	<polygon fill="#FFFFFF" stroke="#FFFFFF" stroke-miterlimit="10" points="412.41,152.974 412.41,168.897 412.41,180.702 
		396.103,152.974 377.543,152.974 377.543,159.837 392.809,179.33 377.543,198.768 377.543,206.234 395.938,206.234 
		395.938,188.883 395.938,179.33 412.41,206.234 430.859,206.234 430.859,152.974 	"/>
	<path fill="#FFFFFF" stroke="#FFFFFF" stroke-miterlimit="10" d="M343.5,179.33l9.555-12.19l-2.416-14.166h-20.151l-6.04,20.92
		c-0.604,2.196-1.922,6.534-1.922,6.534l-7.248-27.454h-19.932l-8.621,53.261h18.724l2.69-21.084
		c0.22-2.032,0.385-2.966,0.604-5.107c0,0,1.153,3.13,1.757,5.381l6.424,20.811h11.311l7.412-21.359
		c0.549-1.702,1.703-5.271,1.703-5.271l2.854,26.631h19.218l-1.373-8.346L343.5,179.33z"/>
	<path fill="#FFFFFF" stroke="#FFFFFF" stroke-miterlimit="10" d="M268.936,206.234h19.932l-18.998-53.261h-21.414l-18.504,53.261
		h19.877l1.482-5.161h15.979L268.936,206.234z M254.77,189.213l4.173-14.441c0,0,1.373,4.612,1.977,6.864l2.416,7.522h-8.565
		V189.213z"/>
</g>
</svg>
